<?xml version="1.0" encoding="UTF-8"?>
<svg width="200px" height="32px" viewBox="0 0 100 32" version="1.1" xmlns="http://www.w3.org/2000/svg" xmlns:xlink="http://www.w3.org/1999/xlink">
    <!-- Generator: Sketch 51.2 (57519) - http://www.bohemiancoding.com/sketch -->
    <g id="Page-1" stroke="none" stroke-width="1" fill="none" fill-rule="evenodd" opacity="0.900000036">
        <g id="logo-positronx-white" fill="#FFFFFF">
            <g id="Group" fill-rule="nonzero">
                <path d="M24.5909494,15.5442786 C27.4764812,12.4437402 28.7158032,9.41455427 27.5483477,7.48803329 C26.8418579,6.32172416 25.3823903,5.70568025 23.3283834,5.70568025 C22.1806141,5.70568025 20.8763829,5.89957753 19.4815477,6.2578033 C18.3123134,2.43769035 16.4242161,0 14.254701,0 C12.0851858,0 10.197049,2.43765084 9.02785415,6.2577638 C7.63309741,5.89957753 6.32898484,5.70568025 5.1813342,5.70568025 C3.12732727,5.70568025 1.66785997,6.32172422 0.961370142,7.48803329 C0.00662849741,9.06356256 0.586936852,11.3772061 2.59572053,14.0039315 C2.98829832,14.517117 3.43712811,15.0322 3.91730557,15.5457017 C1.03284132,18.6456473 -0.205888018,21.6738449 0.961370078,23.6000496 C1.66785991,24.7657262 3.1273272,25.3824027 5.18165039,25.3824027 C5.18165039,25.3824027 5.18165039,25.3824027 5.18196665,25.3824027 C6.32941969,25.3824027 7.63333459,25.1885449 9.02789365,24.8303982 C10.1970885,28.6505111 12.0851858,31.0880829 14.254701,31.0880829 C16.4242162,31.0880829 18.3123134,28.6503926 19.4815478,24.8302796 C20.876383,25.1885054 22.1806141,25.3824027 23.3283834,25.3824027 C25.3823903,25.3824027 26.841858,24.7663587 27.5486641,23.6000496 C28.7156847,21.6735682 27.4763231,18.6447381 24.5909494,15.5442786 Z M23.3283834,7.00101703 C24.4279649,7.00101703 25.8602355,7.20151593 26.4405438,8.15973627 C27.2092943,9.42850855 26.1872321,11.8978233 23.6762916,14.6130972 C22.7629385,13.7291548 21.7177114,12.8495607 20.5664635,11.9944755 C20.4152987,10.3846733 20.1640426,8.87650408 19.8266098,7.51036807 C21.0983865,7.18649437 22.2890464,7.00101703 23.3283834,7.00101703 Z M16.9402478,19.9752571 C16.0466599,20.5167069 15.1480121,21.0007188 14.2548195,21.4457537 C13.3616269,21.0007188 12.4629791,20.5167069 11.5694703,19.9752571 C10.7402777,19.4728634 9.94314424,18.9469095 9.18546237,18.4044319 C9.11422837,17.4890232 9.07335382,16.5359418 9.07335382,15.5440415 C9.07335382,14.5539199 9.11414935,13.602578 9.18514618,12.6886714 C9.93002014,12.154179 10.7226075,11.6260904 11.5694703,11.1128258 C12.4629791,10.571376 13.3615874,10.0873641 14.2547801,9.64236878 C15.1479331,10.0873641 16.0465019,10.571376 16.9399316,11.1128258 C17.7867944,11.6260904 18.5793817,12.1541394 19.3242558,12.6886318 C19.3952526,13.6025384 19.4360481,14.5539199 19.4360481,15.5440415 C19.4360481,16.534321 19.3952526,17.4858212 19.3242162,18.3998859 C18.5794212,18.9342202 17.786992,19.4621506 16.9402478,19.9752571 Z M19.1502423,20.0967739 C19.0052442,21.2184926 18.8064847,22.2572366 18.5707245,23.216208 C17.6557902,22.9257376 16.7104568,22.5674328 15.7437769,22.1430329 C16.3675293,21.8110554 16.9914004,21.4589964 17.6113183,21.0833772 C18.1418972,20.7618753 18.6521179,20.431479 19.1502423,20.0967739 Z M12.7659017,22.1430329 C11.7991032,22.5675119 10.8537303,22.9258562 9.9387169,23.2163662 C9.70279864,22.2568414 9.50392047,21.2174253 9.3588829,20.0949161 C9.86036736,20.4319534 10.3709043,20.7637333 10.8983999,21.0833773 C11.5183178,21.4589964 12.1421493,21.8110949 12.7659017,22.1430329 Z M7.82193543,17.3701944 C7.07251483,16.7742714 6.37673776,16.1650267 5.73800324,15.5491409 C6.36404845,14.9420704 7.05678161,14.3292679 7.82189592,13.7187187 C7.7939478,14.3168949 7.77801703,14.9250723 7.77801703,15.5440415 C7.77801703,16.1633269 7.7939478,16.7717415 7.82193543,17.3701944 Z M9.35912008,10.9916648 C9.50411813,9.86974845 9.70287766,8.83084631 9.9387169,7.87175628 C10.8537699,8.16226626 11.7991032,8.52061062 12.7658622,8.94505 C12.1421098,9.27698795 11.5183178,9.62908646 10.8983999,10.0047057 C10.3677023,10.3263262 9.85736302,10.6568411 9.35912008,10.9916648 Z M15.7437769,8.94505 C16.7104568,8.52065013 17.6557506,8.16234527 18.5707245,7.87187487 C18.8064847,8.83088582 19.0053233,9.86970894 19.1502818,10.9914671 C18.6521574,10.6567225 18.1418972,10.3262867 17.6113183,10.0047057 C16.9914003,9.62908653 16.3675293,9.27702753 15.7437769,8.94505 Z M20.687506,13.7187187 C21.4506431,14.3276472 22.1418741,14.9388684 22.7666938,15.5443577 C22.1418741,16.149847 21.4506431,16.7610287 20.6874665,17.3699177 C20.7154541,16.7715438 20.7313849,16.1632084 20.7313849,15.5440415 C20.7313849,14.9250327 20.7154541,14.3168948 20.687506,13.7187187 Z M14.254701,1.29533679 C15.6832161,1.29533679 17.2030864,3.29388238 18.2256229,6.61591049 C16.9463356,7.01963595 15.6090173,7.54918705 14.2548196,8.19282332 C12.9005427,7.54914754 11.563185,7.01959637 10.2838185,6.61583141 C11.3063155,3.29384288 12.8261858,1.29533679 14.254701,1.29533679 Z M3.6247796,13.2164832 C1.98631801,11.0748766 1.4192919,9.23180453 2.06885777,8.15973627 C2.64948206,7.20151593 4.08175266,7.00101703 5.1813342,7.00101703 C6.22059216,7.00101703 7.41117299,7.18649437 8.68283161,7.51028899 C8.34535939,8.87650402 8.09414281,10.3847523 7.94293847,11.9946336 C6.78852746,12.8520906 5.74096807,13.7342146 4.8257965,14.620608 C4.39048614,14.1523292 3.98177992,13.6832994 3.6247796,13.2164832 Z M5.18196665,24.0870659 L5.1813342,24.0870659 C4.08175266,24.0870659 2.64948206,23.8859345 2.06885777,22.9283466 C1.30026548,21.6599301 2.32248575,19.1906944 4.833584,16.4752624 C5.76112863,17.3696804 6.80552552,18.2483653 7.94285939,19.0925401 C8.09402416,20.7027772 8.34531982,22.2113417 8.68283161,23.5778335 C7.4113706,23.9015885 6.22102694,24.0870659 5.18196665,24.0870659 Z M14.254701,29.7927461 C12.8261858,29.7927461 11.3063551,27.79424 10.2838185,24.472291 C11.5631455,24.068526 12.9005823,23.5389749 14.2548591,22.8952596 C15.6090173,23.5388959 16.9463355,24.068447 18.2256229,24.4721724 C17.2030864,27.7942005 15.6832161,29.7927461 14.254701,29.7927461 Z M26.4408601,22.9283466 C25.8602355,23.886567 24.4279649,24.0870659 23.3283834,24.0870659 C22.2890464,24.0870659 21.0983865,23.9015885 19.8266098,23.5777148 C20.1640426,22.2116579 20.4152591,20.7035677 20.5664239,19.0938841 C21.7176323,18.2389175 22.7628199,17.359442 23.676173,16.4755391 C26.187153,19.1908525 27.2094129,21.6600092 26.4408601,22.9283466 Z" id="Shape"></path>
                <path d="M14.2577448,13.2748302 C13.0077495,13.2748302 11.9909054,14.2916744 11.9909054,15.5416696 C11.9909054,16.7916649 13.0077495,17.808509 14.2577448,17.808509 C15.5012966,17.808509 16.5245842,16.7916649 16.5245842,15.5416696 C16.5245842,14.2916744 15.5012966,13.2748302 14.2577448,13.2748302 Z" id="Shape"></path>
            </g>
        </g>
    </g>
</svg>